<?xml version="1.0" encoding="utf-8"?>
<!DOCTYPE svg PUBLIC "-//W3C//DTD SVG 1.1//EN" "http://www.w3.org/Graphics/SVG/1.1/DTD/svg11.dtd">
<svg version="1.1" xmlns="http://www.w3.org/2000/svg" xmlns:xlink="http://www.w3.org/1999/xlink" x="0px" y="0px"
	 width="541.474px" height="540.84px" viewBox="3727.207 0 541.474 540.84" enable-background="new 3727.207 0 541.474 540.84"
	 xml:space="preserve">
<g>
    
        <linearGradient id="SVGID_1_" gradientUnits="userSpaceOnUse" x1="-181.3059" y1="738.8269" x2="-177.5972" y2="738.8269" gradientTransform="matrix(0.1031 -97.3279 97.3279 0.1031 -67826.9688 -17308.625)">
        <stop  offset="0" style="stop-color:#B33313"/>
        <stop  offset="0.3462" style="stop-color:#CB4625"/>
        <stop  offset="1" style="stop-color:#C04223"/>
    </linearGradient>
    <path fill="url(#SVGID_1_)" d="M4007.241,74.258c1.168-1.166,0.07-10.061,2.184-11.447c4.037-2.652,13.871,0.271,13.871,6.416
        c0,6.148,0.74,17.461,0.492,26.313c-0.246,8.854,0.49,113.35-0.492,125.396s0.246,23.359,0,25.814
        c-0.244,2.461,2.215,1.967,7.133,1.232c4.914-0.738,93.183,1.229,96.133,1.229c2.953,0,4.426,2.459,5.414-3.195
        c0.979-5.658,3.686-152.197,4.912-156.379c1.234-4.178,1.338-17.65,2.582-20.59c0.68-1.602,11.732-1.385,14.139,0.982
        c0.795,0.781,3.648,9.025,2.348,27.955c-2.529,36.695-2.469,104.996-3.822,135.984c-0.822,18.795,0.055,79.426-1.229,95.645
        c-1.311,16.537-1.969,53.205-1.477,69.457c0.408,13.456,0.494,34.387,0.494,47.826c0,7.129,0,25.561,0,29.748
        c0,10.941-12.047,5.535-15.857,0.369c-4.297-5.818-4.111-50.275-4.057-71.427c0.066-29.506-1.051-89.827-0.74-102.344
        c0.191-7.768-0.633-19.492-0.742-32.211c-0.023-3.135,0.373-2.871-7.125-2.643c-28.22,0.857-84.029,0.164-95.332-0.086
        c-2.174-0.049-3.248-0.682-3.35,1.602c-0.24,5.406,1.113,51.846,1.316,55.283c0.434,7.439-3.088,12.625-9.104,12.93
        c-5.826,0.291-10.354-1.006-11.135-8.133c-0.912-8.324-0.004-24.531-1.271-57.68c-0.139-3.535,0.811-4.492-0.99-4.521
        c-4.699-0.078-19.445,0.176-23.379-1.303c-3.934-1.475-8.762-5.117-8.328-9.865c0.461-5.111,7.477-10.439,15.244-10.947
        c6.631-0.436,12.281-0.453,14.74-0.453c2.461,0,4.699,0.248,5.008-1.383c1.305-6.793,0.486-83.166,0.986-105.063
        c0.359-15.732,0.074-39.412,0.129-49.297C4005.966,84.547,4005.345,76.152,4007.241,74.258z"/>
    <path fill="#0F0F0F" d="M4088.208,165.564c-1.223,4.613-13.051,3.641-14.221,2.168c-4.258-5.344-11.682-13.635-20.814-22.328
        c-6.055-5.754-19.334-14.441-30.859-18.393c-11.59-3.975-32.324-8.152-57.754-3.781c-37.109,6.373-66.875,28.73-74.309,35.445
        c-7.229,6.527-27.178,19.947-42.141,63.98c-8.896,26.174-3.5,66.814,6.102,87.053c2.973,6.271,10.957,33.973,60.727,65.646
        c16.143,10.277,33.771,15.975,66.248,12.66c19.398-1.977,53.418-14.234,66.117-24.258c14.232-11.238,25.023-23.654,27.379-24.557
        c2.01-0.768,11.064,5.285,9.836,9.465c-2.328,7.912-14.51,22.131-17.949,24.836c-3.439,2.701-27.045,21.264-40.813,25.938
        c-13.77,4.672-53.725,12.17-79.666,6.27c-25.199-5.733-42.904-11.188-66.879-33.192c-23.439-21.52-36.742-47.41-41.303-61.102
        c-4.551-13.645-11.684-40.691-10.082-63.682c1.469-21.17,9.461-47.82,21.758-66.754c12.635-19.461,30.018-40.404,49.934-51.963
        c19.918-11.553,38.852-22.754,70.443-26.32c22.727-2.566,53.846,1.93,70.809,9.268c16.686,7.217,30.943,21.367,38.055,29.486
        C4088.238,152.185,4089.48,160.754,4088.208,165.564z"/>
</g>
</svg>
